<svg viewBox="0 0 53 53" xmlns="http://www.w3.org/2000/svg" xmlns:xlink="http://www.w3.org/1999/xlink"><style>:root&gt;svg{display:none}:root&gt;svg:target{display:block}</style><svg viewBox="0 0 14 10" id="arrow-left" xmlns="http://www.w3.org/2000/svg"><path fill-rule="evenodd" clip-rule="evenodd" d="M14 5a.5.5 0 00-.5-.5H1.707l3.147-3.146a.5.5 0 00-.708-.708l-4 4a.5.5 0 000 .708l4 4a.5.5 0 00.708-.708L1.707 5.5H13.5A.5.5 0 0014 5z"/></svg><svg viewBox="0 0 14 10" id="arrow-right" xmlns="http://www.w3.org/2000/svg"><path fill-rule="evenodd" clip-rule="evenodd" d="M0 5a.5.5 0 01.5-.5h11.793L9.146 1.354a.5.5 0 11.708-.708l4 4a.5.5 0 010 .708l-4 4a.5.5 0 11-.708-.708L12.293 5.5H.5A.5.5 0 010 5z"/></svg><svg viewBox="0 0 16 18" id="arrow-up" xmlns="http://www.w3.org/2000/svg"><path d="M8 17V1M1 8l7-7 7 7"/></svg><svg viewBox="0 0 53 53" id="calendar" xmlns="http://www.w3.org/2000/svg"><path d="M48.86 9.938h-9.11V4.14h-3.313v5.796H16.564V4.141H13.25v5.796H4.14a2.487 2.487 0 00-2.484 2.485v34.781a2.487 2.487 0 002.485 2.484h44.718a2.487 2.487 0 002.485-2.484V12.422a2.487 2.487 0 00-2.485-2.485zm-.829 36.437H4.97V13.25h8.281v4.14h3.313v-4.14h19.875v4.14h3.312v-4.14h8.281v33.125z"/><path d="M11.594 23.188h3.312V26.5h-3.312v-3.313zm9.109 0h3.313V26.5h-3.313v-3.313zm8.281 0h3.313V26.5h-3.313v-3.313zm9.11 0h3.312V26.5h-3.312v-3.313zm-26.5 7.452h3.312v3.313h-3.312v-3.312zm9.109 0h3.313v3.313h-3.313v-3.312zm8.281 0h3.313v3.313h-3.313v-3.312zm9.11 0h3.312v3.313h-3.312v-3.312zm-26.5 7.454h3.312v3.312h-3.312v-3.312zm9.109 0h3.313v3.312h-3.313v-3.312zm8.281 0h3.313v3.312h-3.313v-3.312zm9.11 0h3.312v3.312h-3.312v-3.312z"/></svg><svg viewBox="0 0 18 14" id="check" xmlns="http://www.w3.org/2000/svg"><path d="M1 7l6 6L17 1"/></svg><svg viewBox="0 0 18 10" id="chevron" xmlns="http://www.w3.org/2000/svg"><path d="M1 1l8 8 8-8"/></svg><svg viewBox="0 0 22 22" id="clock" xmlns="http://www.w3.org/2000/svg"><path d="M11 21c5.523 0 10-4.477 10-10S16.523 1 11 1 1 5.477 1 11s4.477 10 10 10z"/><path d="M14 15l-2.414-2.414A2 2 0 0111 11.172V5"/></svg><svg viewBox="0 0 16 16" id="close" xmlns="http://www.w3.org/2000/svg"><path d="M9.175 8l6.075-6.075A.833.833 0 0014.075.75L8 6.825 1.925.742A.833.833 0 00.75 1.917L6.825 8 .742 14.075a.834.834 0 101.175 1.175L8 9.175l6.075 6.075a.833.833 0 001.175-1.175L9.175 8z"/></svg><svg viewBox="0 0 12 10" id="email" xmlns="http://www.w3.org/2000/svg"><path d="M2 0a2 2 0 00-2 2v.201l6 3.231 6-3.23V2a2 2 0 00-2-2H2zm10 3.337L6.237 6.44a.5.5 0 01-.474 0L0 3.337V8a2 2 0 002 2h8a2 2 0 002-2V3.337z"/></svg><svg viewBox="0 0 17 35" id="facebook" xmlns="http://www.w3.org/2000/svg"><path d="M4.34 35V18.577H0v-5.913h4.34v-5.05C4.34 3.643 6.903 0 12.81 0c2.392 0 4.16.23 4.16.23l-.14 5.521s-1.803-.017-3.771-.017c-2.13 0-2.471.982-2.471 2.612v4.318H17l-.279 5.913h-6.133V35H4.34z"/></svg><svg viewBox="0 0 22 22" id="instagram" xmlns="http://www.w3.org/2000/svg"><path fill-rule="evenodd" clip-rule="evenodd" d="M6.465.066C7.638.012 8.012 0 11 0c2.988 0 3.362.013 4.534.066 1.172.053 1.972.24 2.672.511.733.277 1.398.71 1.948 1.27.56.549.992 1.213 1.268 1.947.272.7.458 1.5.512 2.67C21.988 7.639 22 8.013 22 11c0 2.988-.013 3.362-.066 4.535-.053 1.17-.24 1.97-.512 2.67a5.396 5.396 0 01-1.268 1.949c-.55.56-1.215.992-1.948 1.268-.7.272-1.5.458-2.67.512-1.174.054-1.548.066-4.536.066-2.988 0-3.362-.013-4.535-.066-1.17-.053-1.97-.24-2.67-.512a5.396 5.396 0 01-1.949-1.268 5.392 5.392 0 01-1.269-1.948c-.271-.7-.457-1.5-.511-2.67C.012 14.361 0 13.987 0 11c0-2.988.013-3.362.066-4.534.053-1.172.24-1.972.511-2.672a5.396 5.396 0 011.27-1.948A5.392 5.392 0 013.794.577c.7-.271 1.5-.457 2.67-.511h.001zm8.98 1.98c-1.16-.053-1.508-.064-4.445-.064-2.937 0-3.285.011-4.445.064-1.073.049-1.655.228-2.043.379-.513.2-.88.437-1.265.822a3.412 3.412 0 00-.822 1.265c-.151.388-.33.97-.379 2.043-.053 1.16-.064 1.508-.064 4.445 0 2.937.011 3.285.064 4.445.049 1.073.228 1.655.379 2.043.176.477.457.91.822 1.265.355.365.788.646 1.265.822.388.151.97.33 2.043.379 1.16.053 1.507.064 4.445.064 2.938 0 3.285-.011 4.445-.064 1.073-.049 1.655-.228 2.043-.379.513-.2.88-.437 1.265-.822.365-.355.646-.788.822-1.265.151-.388.33-.97.379-2.043.053-1.16.064-1.508.064-4.445 0-2.937-.011-3.285-.064-4.445-.049-1.073-.228-1.655-.379-2.043-.2-.513-.437-.88-.822-1.265a3.413 3.413 0 00-1.265-.822c-.388-.151-.97-.33-2.043-.379zm-5.85 12.345a3.67 3.67 0 102.641-6.846 3.67 3.67 0 00-2.641 6.846zM7.002 7.002a5.654 5.654 0 117.996 7.996 5.654 5.654 0 01-7.996-7.996zm10.906-.814a1.336 1.336 0 10-1.834-1.944 1.336 1.336 0 001.834 1.944z"/></svg><svg viewBox="0 0 20 19" id="linkedin" xmlns="http://www.w3.org/2000/svg"><path d="M4.54 19V6.18H.253V19H4.54zM2.397 4.43c1.495 0 2.426-.985 2.426-2.215C4.795.957 3.893 0 2.425 0 .96 0 0 .957 0 2.215c0 1.23.93 2.214 2.369 2.214h.028zM6.913 19H11.2v-7.159c0-.383.028-.766.141-1.04.31-.765 1.016-1.558 2.2-1.558 1.551 0 2.172 1.176 2.172 2.899V19H20v-7.35c0-3.938-2.115-5.77-4.936-5.77-2.313 0-3.328 1.285-3.892 2.16h.028V6.18H6.913c.056 1.203 0 12.82 0 12.82z"/></svg><svg viewBox="0 0 14 19" id="location" xmlns="http://www.w3.org/2000/svg"><path d="M7 19a29.779 29.779 0 01-3.5-3.531C1.9 13.558 0 10.712 0 8a7 7 0 0111.952-4.951A6.954 6.954 0 0114 8c0 2.712-1.9 5.558-3.5 7.469A29.78 29.78 0 017 19zM7 5a3 3 0 100 6 3 3 0 000-6z"/></svg><svg viewBox="0 0 27 27" id="phone" xmlns="http://www.w3.org/2000/svg"><path d="M18.33 18.48l2.24-2.24a2.19 2.19 0 012.34-.48l2.73 1.09a2.18 2.18 0 011.36 2v5A2.17 2.17 0 0124.72 26C5.59 24.81 1.73 8.61 1 2.41A2.17 2.17 0 013.17 0H8a2.16 2.16 0 012 1.36l1.09 2.73a2.16 2.16 0 01-.47 2.34L8.38 8.67s1.29 8.73 9.95 9.81z"/></svg><svg viewBox="0 0 24 24" id="phone-2" xmlns="http://www.w3.org/2000/svg"><path d="M10.554 6.24L7.171 2.335c-.39-.45-1.105-.448-1.558.006L2.831 5.128c-.828.829-1.065 2.06-.586 3.047a29.207 29.207 0 0013.561 13.58c.986.479 2.216.242 3.044-.587l2.808-2.813c.455-.455.456-1.174.002-1.564l-3.92-3.365c-.41-.352-1.047-.306-1.458.106l-1.364 1.366a.462.462 0 01-.553.088 14.556 14.556 0 01-5.36-5.367.463.463 0 01.088-.554l1.36-1.361c.412-.414.457-1.054.101-1.465v.001z"/></svg><svg viewBox="0 0 22 22" id="search" xmlns="http://www.w3.org/2000/svg"><path d="M21.872 20.365l-7.101-7.1a8.13 8.13 0 001.698-5 8.153 8.153 0 00-2.404-5.799 8.142 8.142 0 00-5.8-2.404c-2.19 0-4.251.856-5.799 2.404a8.138 8.138 0 00-2.404 5.8c0 2.19.856 4.252 2.404 5.8a8.138 8.138 0 005.8 2.403 8.136 8.136 0 004.995-1.696l7.102 7.099a.224.224 0 00.317 0l1.192-1.19a.225.225 0 000-.317zm-9.275-7.768a6.092 6.092 0 01-4.331 1.794 6.092 6.092 0 01-4.332-1.794 6.092 6.092 0 01-1.793-4.331 6.09 6.09 0 011.793-4.332 6.092 6.092 0 014.332-1.793c1.635 0 3.174.634 4.33 1.793a6.092 6.092 0 011.795 4.332 6.088 6.088 0 01-1.794 4.33z"/></svg></svg>