<svg width="53" height="53" fill="none" xmlns="http://www.w3.org/2000/svg"><path d="M48.86 9.938h-9.11V4.14h-3.313v5.796H16.564V4.141H13.25v5.796H4.14a2.487 2.487 0 00-2.484 2.485v34.781a2.487 2.487 0 002.485 2.484h44.718a2.487 2.487 0 002.485-2.484V12.422a2.487 2.487 0 00-2.485-2.485zm-.829 36.437H4.97V13.25h8.281v4.14h3.313v-4.14h19.875v4.14h3.312v-4.14h8.281v33.125z" fill="#000"/><path d="M11.594 23.188h3.312V26.5h-3.312v-3.313zm9.109 0h3.313V26.5h-3.313v-3.313zm8.281 0h3.313V26.5h-3.313v-3.313zm9.11 0h3.312V26.5h-3.312v-3.313zm-26.5 7.452h3.312v3.313h-3.312v-3.312zm9.109 0h3.313v3.313h-3.313v-3.312zm8.281 0h3.313v3.313h-3.313v-3.312zm9.11 0h3.312v3.313h-3.312v-3.312zm-26.5 7.454h3.312v3.312h-3.312v-3.312zm9.109 0h3.313v3.312h-3.313v-3.312zm8.281 0h3.313v3.312h-3.313v-3.312zm9.11 0h3.312v3.312h-3.312v-3.312z" fill="#000"/></svg>