<svg width="22" height="22" fill="none" xmlns="http://www.w3.org/2000/svg"><path d="M21.872 20.365l-7.101-7.1a8.13 8.13 0 001.698-5 8.153 8.153 0 00-2.404-5.799 8.142 8.142 0 00-5.8-2.404c-2.19 0-4.251.856-5.799 2.404a8.138 8.138 0 00-2.404 5.8c0 2.19.856 4.252 2.404 5.8a8.138 8.138 0 005.8 2.403 8.136 8.136 0 004.995-1.696l7.102 7.099a.224.224 0 00.317 0l1.192-1.19a.225.225 0 000-.317zm-9.275-7.768a6.092 6.092 0 01-4.331 1.794 6.092 6.092 0 01-4.332-1.794 6.092 6.092 0 01-1.793-4.331 6.09 6.09 0 011.793-4.332 6.092 6.092 0 014.332-1.793c1.635 0 3.174.634 4.33 1.793a6.092 6.092 0 011.795 4.332 6.088 6.088 0 01-1.794 4.33z" fill="#000"/></svg>