<svg width="14" height="10" viewBox="0 0 14 10" fill="none" xmlns="http://www.w3.org/2000/svg">
<path fill-rule="evenodd" clip-rule="evenodd" d="M14 4.99999C14 4.86738 13.9473 4.74021 13.8536 4.64644C13.7598 4.55267 13.6326 4.49999 13.5 4.49999H1.70701L4.85401 1.35399C4.9005 1.3075 4.93737 1.25231 4.96253 1.19157C4.98769 1.13083 5.00064 1.06573 5.00064 0.999991C5.00064 0.934247 4.98769 0.869147 4.96253 0.808407C4.93737 0.747668 4.9005 0.692479 4.85401 0.645991C4.80752 0.599503 4.75233 0.562627 4.69159 0.537467C4.63085 0.512308 4.56575 0.499359 4.50001 0.499359C4.43426 0.499359 4.36916 0.512308 4.30842 0.537467C4.24769 0.562627 4.1925 0.599503 4.14601 0.645991L0.146009 4.64599C0.0994455 4.69244 0.0625027 4.74761 0.0372962 4.80836C0.0120898 4.8691 -0.00088501 4.93422 -0.00088501 4.99999C-0.00088501 5.06576 0.0120898 5.13088 0.0372962 5.19162C0.0625027 5.25237 0.0994455 5.30754 0.146009 5.35399L4.14601 9.35399C4.1925 9.40048 4.24769 9.43735 4.30842 9.46251C4.36916 9.48767 4.43426 9.50062 4.50001 9.50062C4.56575 9.50062 4.63085 9.48767 4.69159 9.46251C4.75233 9.43735 4.80752 9.40048 4.85401 9.35399C4.9005 9.3075 4.93737 9.25231 4.96253 9.19157C4.98769 9.13083 5.00064 9.06573 5.00064 8.99999C5.00064 8.93425 4.98769 8.86915 4.96253 8.80841C4.93737 8.74767 4.9005 8.69248 4.85401 8.64599L1.70701 5.49999H13.5C13.6326 5.49999 13.7598 5.44731 13.8536 5.35354C13.9473 5.25978 14 5.1326 14 4.99999Z" fill="black"/>
</svg>
