<svg width="14" height="10" viewBox="0 0 14 10" fill="none" xmlns="http://www.w3.org/2000/svg">
<path fill-rule="evenodd" clip-rule="evenodd" d="M0 4.99999C0 4.86738 0.0526784 4.74021 0.146447 4.64644C0.240215 4.55267 0.367392 4.49999 0.5 4.49999H12.293L9.146 1.35399C9.05211 1.2601 8.99937 1.13277 8.99937 0.999991C8.99937 0.867215 9.05211 0.739877 9.146 0.645991C9.23989 0.552104 9.36722 0.499359 9.5 0.499359C9.63278 0.499359 9.76011 0.552104 9.854 0.645991L13.854 4.64599C13.9006 4.69244 13.9375 4.74761 13.9627 4.80836C13.9879 4.8691 14.0009 4.93422 14.0009 4.99999C14.0009 5.06576 13.9879 5.13088 13.9627 5.19162C13.9375 5.25237 13.9006 5.30754 13.854 5.35399L9.854 9.35399C9.76011 9.44788 9.63278 9.50062 9.5 9.50062C9.36722 9.50062 9.23989 9.44788 9.146 9.35399C9.05211 9.2601 8.99937 9.13277 8.99937 8.99999C8.99937 8.86721 9.05211 8.73988 9.146 8.64599L12.293 5.49999H0.5C0.367392 5.49999 0.240215 5.44731 0.146447 5.35354C0.0526784 5.25978 0 5.1326 0 4.99999V4.99999Z" fill="black"/>
</svg>
