<svg width="53" height="53" viewBox="0 0 53 53" fill="none" xmlns="http://www.w3.org/2000/svg">
<path d="M48.8594 9.9375H39.75V4.14062H36.4375V9.9375H16.5625V4.14062H13.25V9.9375H4.14062C3.48196 9.93827 2.8505 10.2003 2.38475 10.666C1.91901 11.1317 1.65702 11.7632 1.65625 12.4219V47.2031C1.65702 47.8618 1.91901 48.4933 2.38475 48.959C2.8505 49.4247 3.48196 49.6867 4.14062 49.6875H48.8594C49.518 49.6867 50.1495 49.4247 50.6152 48.959C51.081 48.4933 51.343 47.8618 51.3438 47.2031V12.4219C51.343 11.7632 51.081 11.1317 50.6152 10.666C50.1495 10.2003 49.518 9.93827 48.8594 9.9375V9.9375ZM48.0312 46.375H4.96875V13.25H13.25V17.3906H16.5625V13.25H36.4375V17.3906H39.75V13.25H48.0312V46.375Z" fill="black"/>
<path d="M11.5938 23.1875H14.9062V26.5H11.5938V23.1875Z" fill="black"/>
<path d="M20.7031 23.1875H24.0156V26.5H20.7031V23.1875Z" fill="black"/>
<path d="M28.9844 23.1875H32.2969V26.5H28.9844V23.1875Z" fill="black"/>
<path d="M38.0938 23.1875H41.4062V26.5H38.0938V23.1875Z" fill="black"/>
<path d="M11.5938 30.6406H14.9062V33.9531H11.5938V30.6406Z" fill="black"/>
<path d="M20.7031 30.6406H24.0156V33.9531H20.7031V30.6406Z" fill="black"/>
<path d="M28.9844 30.6406H32.2969V33.9531H28.9844V30.6406Z" fill="black"/>
<path d="M38.0938 30.6406H41.4062V33.9531H38.0938V30.6406Z" fill="black"/>
<path d="M11.5938 38.0938H14.9062V41.4062H11.5938V38.0938Z" fill="black"/>
<path d="M20.7031 38.0938H24.0156V41.4062H20.7031V38.0938Z" fill="black"/>
<path d="M28.9844 38.0938H32.2969V41.4062H28.9844V38.0938Z" fill="black"/>
<path d="M38.0938 38.0938H41.4062V41.4062H38.0938V38.0938Z" fill="black"/>
</svg>
