<svg width="20" height="19" viewBox="0 0 20 19" fill="none" xmlns="http://www.w3.org/2000/svg">
<path d="M4.54005 19V6.18074H0.252822V19H4.54005ZM2.39699 4.42943C3.89202 4.42943 4.8226 3.44506 4.8226 2.21492C4.79475 0.957049 3.89208 0 2.42536 0C0.958871 0 -0.00012207 0.957068 -0.00012207 2.21492C-0.00012207 3.44512 0.930233 4.42943 2.369 4.42943H2.39685H2.39699ZM6.91301 19H11.2002V11.8411C11.2002 11.458 11.2281 11.0752 11.3413 10.8013C11.6512 10.0359 12.3567 9.24302 13.541 9.24302C15.0923 9.24302 15.713 10.4186 15.713 12.1419V18.9999H19.9999V11.6495C19.9999 7.71189 17.8848 5.87978 15.0641 5.87978C12.7513 5.87978 11.7358 7.1646 11.1717 8.03968H11.2003V6.18047H6.91311C6.96937 7.38336 6.91311 18.9998 6.91311 18.9998L6.91301 19Z" fill="black"/>
</svg>
