<svg width="14" height="19" viewBox="0 0 14 19" fill="none" xmlns="http://www.w3.org/2000/svg">
<path d="M7 19C5.73694 17.9226 4.56619 16.7415 3.5 15.469C1.9 13.558 8.78894e-07 10.712 8.78894e-07 8C-0.00069302 6.61496 0.409509 5.26085 1.17869 4.10903C1.94788 2.95721 3.04147 2.05946 4.32107 1.5294C5.60067 0.999337 7.00875 0.860791 8.36712 1.13129C9.72548 1.40179 10.9731 2.06918 11.952 3.049C12.6038 3.69786 13.1204 4.46954 13.4719 5.31937C13.8234 6.16921 14.0029 7.08033 14 8C14 10.712 12.1 13.558 10.5 15.469C9.4338 16.7415 8.26306 17.9226 7 19ZM7 5C6.20435 5 5.44129 5.31607 4.87868 5.87868C4.31607 6.44129 4 7.20435 4 8C4 8.79565 4.31607 9.55871 4.87868 10.1213C5.44129 10.6839 6.20435 11 7 11C7.79565 11 8.55871 10.6839 9.12132 10.1213C9.68393 9.55871 10 8.79565 10 8C10 7.20435 9.68393 6.44129 9.12132 5.87868C8.55871 5.31607 7.79565 5 7 5Z" fill="black"/>
</svg>
