<svg width="24" height="24" viewBox="0 0 24 24" fill="none" xmlns="http://www.w3.org/2000/svg">
<path d="M10.554 6.24003L7.171 2.33503C6.781 1.88503 6.066 1.88703 5.613 2.34103L2.831 5.12803C2.003 5.95703 1.766 7.18803 2.245 8.17503C5.10662 14.1 9.88505 18.8851 15.806 21.755C16.792 22.234 18.022 21.997 18.85 21.168L21.658 18.355C22.113 17.9 22.114 17.181 21.66 16.791L17.74 13.426C17.33 13.074 16.693 13.12 16.282 13.532L14.918 14.898C14.8482 14.9712 14.7563 15.0195 14.6564 15.0354C14.5565 15.0513 14.4541 15.0339 14.365 14.986C12.1354 13.7021 10.286 11.8503 9.005 9.61903C8.95703 9.52978 8.93966 9.42726 8.95556 9.32719C8.97145 9.22711 9.01974 9.13502 9.093 9.06503L10.453 7.70403C10.865 7.29003 10.91 6.65003 10.554 6.23903V6.24003Z" stroke="black" stroke-width="2" stroke-linecap="round" stroke-linejoin="round"/>
</svg>
